<svg width="76" height="78" viewBox="0 0 76 78" fill="none" xmlns="http://www.w3.org/2000/svg">
<path d="M38 2.4375C16.5062 2.4375 4.75 16.3312 4.75 34.7344V75.5625H71.25V34.7344C71.25 7.43438 53.2 7.92188 53.2 7.92188C53.2 7.92188 51.8937 2.4375 38 2.4375Z" fill="#FFB300"/>
<path d="M12.35 49.6031C12.35 49.6031 7.125 48.2625 7.125 40.4625C7.125 34.2469 11.0438 33.2719 11.0438 33.2719C25.0563 33.15 51.0625 14.625 51.0625 14.625C51.0625 14.625 56.525 30.9563 64.8375 33.15C64.8375 33.15 68.875 33.8812 68.875 40.3406C68.875 48.1406 63.5312 49.4812 63.5312 49.4812C63.4125 61.3031 47.6188 75.5625 38 75.5625C28.3812 75.5625 12.35 61.3031 12.35 49.6031Z" fill="#FFDD67"/>
<path d="M38.001 57.2812C33.0135 57.2812 30.5197 53.625 33.0135 53.625H42.9885C45.4822 53.625 42.9885 57.2812 38.001 57.2812Z" fill="#EBA352"/>
<path d="M45.482 46.5562C43.7008 46.5562 43.9383 44.3625 43.9383 44.3625C46.5508 30.3468 61.7508 37.7812 61.7508 37.7812C62.9383 40.2187 59.0195 46.1906 57.9508 46.5562C52.9633 47.775 45.482 46.5562 45.482 46.5562Z" fill="#F5F5F5"/>
<path d="M57.5938 40.8281C57.5938 43.875 55.2188 46.3125 52.25 46.3125C49.2812 46.3125 46.9062 43.875 46.9062 40.8281C46.9062 37.7812 49.2812 35.3438 52.25 35.3438C55.2188 35.3438 57.5938 37.7812 57.5938 40.8281Z" fill="#664E27"/>
<path d="M52.25 42.6562C53.2338 42.6562 54.0312 41.8378 54.0312 40.8281C54.0312 39.8185 53.2338 39 52.25 39C51.2662 39 50.4688 39.8185 50.4688 40.8281C50.4688 41.8378 51.2662 42.6562 52.25 42.6562Z" fill="#2B2925"/>
<path d="M43.9375 44.2406C46.55 27.5438 59.9688 38.6344 65.3125 36.3188C59.9688 41.5594 49.2812 30.3469 43.9375 44.2406Z" fill="#3B3226"/>
<path d="M30.5178 46.5562C32.2991 46.5562 32.0616 44.3625 32.0616 44.3625C29.4491 30.3468 14.2491 37.7812 14.2491 37.7812C13.0616 40.2187 16.9803 46.1906 18.0491 46.5562C23.0366 47.775 30.5178 46.5562 30.5178 46.5562Z" fill="#F5F5F5"/>
<path d="M18.4062 40.8281C18.4062 43.875 20.7812 46.3125 23.75 46.3125C26.7188 46.3125 29.0938 43.875 29.0938 40.8281C29.0938 37.7812 26.7188 35.3438 23.75 35.3438C20.7812 35.3438 18.4062 37.7812 18.4062 40.8281Z" fill="#664E27"/>
<path d="M32.0625 44.2406C29.45 27.5438 16.0312 38.6344 10.6875 36.3188C16.0312 41.5594 26.7188 30.3469 32.0625 44.2406Z" fill="#3B3226"/>
<path d="M38 63.375L26.125 61.5469C33.25 71.9062 42.75 71.9062 49.875 61.5469L38 63.375Z" fill="#F09985"/>
<path d="M42.6313 61.0594C39.1875 59.7187 38 61.9125 38 61.9125C38 61.9125 36.8125 59.7187 33.3688 61.0594C30.6375 62.1562 26.125 61.5469 26.125 61.5469C30.875 62.6437 31.4688 64.5937 38 64.5937C44.5312 64.5937 45.125 62.5219 49.875 61.5469C49.875 61.5469 45.3625 62.1562 42.6313 61.0594Z" fill="#D47F6C"/>
<path d="M23.75 42.6562C24.7338 42.6562 25.5312 41.8378 25.5312 40.8281C25.5312 39.8185 24.7338 39 23.75 39C22.7662 39 21.9688 39.8185 21.9688 40.8281C21.9688 41.8378 22.7662 42.6562 23.75 42.6562Z" fill="#2B2925"/>
</svg>
