<svg width="76" height="76" viewBox="0 0 76 76" fill="none" xmlns="http://www.w3.org/2000/svg">
<path d="M7.125 42.75H68.875C68.875 9.5 64.125 2.375 38 2.375C11.875 2.375 7.125 9.5 7.125 42.75Z" fill="#FFB300"/>
<path d="M66.2625 35.5062C66.025 36.8125 65.7875 38 65.4312 38.7125C64.7187 39.9 63.4125 40.6125 63.4125 40.6125C63.4125 40.6125 63.7687 38.1187 63.65 34.675C62.225 14.0125 61.0375 19.7125 38 19.7125C14.9625 19.7125 13.775 14.0125 12.35 34.5562C12.2312 38 12.5875 40.6125 12.5875 40.6125C12.5875 40.6125 11.2812 39.9 10.5687 38.7125C10.2125 38 9.975 36.8125 9.7375 35.5062C7.6 34.9125 4.75 35.3875 4.75 41.5625C4.75 45.3625 6.175 48.5687 11.0438 48.925C12.5875 61.0375 19.7125 67.2125 31.4688 72.5562C34.675 73.9812 41.325 73.9812 44.5312 72.5562C56.4062 67.2125 63.4125 61.0375 64.9563 48.925C69.825 48.5687 71.25 45.4812 71.25 41.5625C71.25 35.3875 68.4 34.9125 66.2625 35.5062Z" fill="#FFDD67"/>
<path d="M48.6875 58.0688C48.6875 62.1063 43.3438 64.125 38 64.125C32.6562 64.125 27.3125 62.1063 27.3125 58.0688C27.3125 58.0688 27.3125 57 28.3812 57H47.6187C48.6875 57 48.6875 58.0688 48.6875 58.0688" fill="#937237"/>
<path d="M23.75 33.9625C17.8125 33.9625 15.4375 36.1 15.4375 38.2375C15.4375 40.375 15.4375 43.4625 23.275 43.4625C30.875 43.4625 32.0625 42.5125 32.0625 39.3063C32.0625 37.1688 29.6875 33.9625 23.75 33.9625Z" fill="#F5F5F5"/>
<path d="M24.3438 42.8688C27.295 42.8688 29.6875 40.4763 29.6875 37.525C29.6875 34.5738 27.295 32.1813 24.3438 32.1813C21.3925 32.1813 19 34.5738 19 37.525C19 40.4763 21.3925 42.8688 24.3438 42.8688Z" fill="#664E27"/>
<path d="M26.125 37.525C26.125 38.475 25.2938 39.3063 24.3438 39.3063C23.3937 39.3063 22.5625 38.475 22.5625 37.525C22.5625 36.575 23.3937 35.7438 24.3438 35.7438C25.2938 35.7438 26.125 36.575 26.125 37.525Z" fill="#231F20"/>
<path d="M15.4375 38.1188C15.4375 29.8063 32.0625 29.8063 32.0625 39.3063C29.6875 32.1813 17.8125 32.1813 15.4375 38.1188Z" fill="#664E27"/>
<path d="M52.25 33.9625C58.1875 33.9625 60.5625 36.1 60.5625 38.2375C60.5625 40.375 60.5625 43.4625 52.725 43.4625C45.125 43.4625 43.9375 42.5125 43.9375 39.3063C43.9375 37.1688 46.3125 33.9625 52.25 33.9625Z" fill="#F5F5F5"/>
<path d="M51.6562 42.8688C54.6075 42.8688 57 40.4763 57 37.525C57 34.5738 54.6075 32.1813 51.6562 32.1813C48.705 32.1813 46.3125 34.5738 46.3125 37.525C46.3125 40.4763 48.705 42.8688 51.6562 42.8688Z" fill="#664E27"/>
<path d="M49.875 37.525C49.875 38.475 50.7062 39.3063 51.6562 39.3063C52.6063 39.3063 53.4375 38.475 53.4375 37.525C53.4375 36.575 52.6063 35.7438 51.6562 35.7438C50.7062 35.7438 49.875 36.575 49.875 37.525Z" fill="#231F20"/>
<path d="M60.5625 38.1188C60.5625 29.8063 43.9375 29.8063 43.9375 39.3063C46.3125 32.1813 58.1875 32.1813 60.5625 38.1188Z" fill="#664E27"/>
<path d="M38.001 53.4375C33.0135 53.4375 30.5197 49.875 33.0135 49.875H42.9885C45.4822 49.875 42.9885 53.4375 38.001 53.4375Z" fill="#EBA352"/>
</svg>
